# xmcd
#
# Track frame offsets:
#	150
#	8720
#	23325
#	32483
#	46150
#	54208
#	67715
#	79008
#	90680
#	99995
#	114515
#	132360
#	149078
#	168943
#	181180
#	194265
#	206075
#	216865
#
# Disc length: 3026
#
# Revision: 3
# Processed by: cddbd v1.5.1PL0 Copyright (c) Steve Scherf et al.
# Submitted via: ExactAudioCopy v0.90b4
# Normalized: r2:DSETVAR1
#
DISCID=e20bd012
DTITLE=Various Artist - Legends Of Guitar Country Volume 2
DYEAR=1991
DGENRE=
TTITLE0=Jimmy Bryant - Little Rock Getaway
TTITLE1=Carter Family - Wildwood Flower
TTITLE2=Chet Atkins and His Galloping Guitar - Chinatown, My Chinatown
TTITLE3=Jerry Byrd and His String Dusters - Steelin' The Blues
TTITLE4=James Burton and Ralph Mooney - Corn Pickin'
TTITLE5=Clarence White and The Kentucky Colonels - Farewell Blues
TTITLE6=Merle Travis - Blue Smoke
TTITLE7=Roy Clark - Dented Fender
TTITLE8=Jerry Reed - The Claw
TTITLE9=Johnny Bush - Home In San Antone
TTITLE10=Tony Rice - Me And My Guitar
TTITLE11=Albert Lee - Country Boy
TTITLE12=Bob Wills and His Texas Playboys - Barnard Blues
TTITLE13=Hank Garland - Seventh And Union
TTITLE14=Chet Atkins and Les Paul - Give My Love To Nell
TTITLE15="Little" Jimmy Dickens - Out Of Business
TTITLE16=Dave Dudley - Six Days On The Road
TTITLE17=Grady Martin and His Winging Strings - Pork Chop Stomp
EXTD=
EXTT0=
EXTT1=
EXTT2=
EXTT3=
EXTT4=
EXTT5=
EXTT6=
EXTT7=
EXTT8=
EXTT9=
EXTT10=
EXTT11=
EXTT12=
EXTT13=
EXTT14=
EXTT15=
EXTT16=
EXTT17=
PLAYORDER=
